{"title":"The Stranger Within 2013 DVDRiP XViD-UNiQUE","uid":8867933,"size":1489561600,"categoryP":"video","categoryS":"movies","magnet":"?xt=urn:btih:4ed033b389c4a269fb3a01e06a7c193bf65bbc27&amp;dn=The+Stranger+Within+2013+DVDRiP+XViD-UNiQUE&amp;tr=udp%3A%2F%2Ftracker.openbittorrent.com%3A80&amp;tr=udp%3A%2F%2Fopen.demonii.com%3A1337&amp;tr=udp%3A%2F%2Ftracker.coppersurfer.tk%3A6969&amp;tr=udp%3A%2F%2Fexodus.desync.com%3A6969","seeders":1,"leechers":0,"uploader":"HeroMaster","files":-1,"time":1377975296,"description":"The Stranger Within 2013 DVDRiP XViD-UNiQUE\n\nFormat                                   : AVI\nFormat/Info                              : Audio Video Interleave\nFile size                                : 1.37 GiB\nDuration                                 : 1h 30mn\nOverall bit rate                         : 2 173 Kbps\nWriting library                          : VirtualDubMod build 2540/release\n\nVideo\nID                                       : 0\nFormat                                   : MPEG-4 Visual\nFormat profile                           : Advanced Simple@L5\nFormat settings, BVOP                    : 2\nFormat settings, QPel                    : No\nFormat settings, GMC                     : No warppoints\nFormat settings, Matrix                  : Default (H.263)\nMuxing mode                              : Packed bitstream\nCodec ID                                 : XVID\nCodec ID/Hint                            : XviD\nDuration                                 : 1h 30mn\nBit rate                                 : 1 716 Kbps\nWidth                                    : 720 pixels\nHeight                                   : 304 pixels\nDisplay aspect ratio                     : 3:2\nOriginal display aspect ratio            : 2.35:1\nFrame rate                               : 23.976 fps\nColor space                              : YUV\nChroma subsampling                       : 4:2:0\nBit depth                                : 8 bits\nScan type                                : Progressive\nCompression mode                         : Lossy\nBits/(Pixel*Frame)                       : 0.327\nStream size                              : 1.09 GiB (79%)\nWriting library                          : XviD 64\n\nAudio\nID                                       : 1\nFormat                                   : AC-3\nFormat/Info                              : Audio Coding 3\nMode extension                           : CM (complete main)\nFormat settings, Endianness              : Big\nCodec ID                                 : 2000\nDuration                                 : 1h 30mn\nBit rate mode                            : Constant\nBit rate                                 : 448 Kbps\nChannel(s)                               : 6 channels\nChannel positions                        : Front: L C R, Side: L R, LFE\nSampling rate                            : 48.0 KHz\nBit depth                                : 16 bits\nCompression mode                         : Lossy\nStream size                              : 290 MiB (21%)\nAlignment                                : Aligned on interleaves\nInterleave, duration                     : 42 ms (1.00 video frame)\nInterleave, preload duration             : 512 ms\n\n &lt;a href=&quot;\nhttp://www.imdb.com/title/tt2180571/&quot; rel=&quot;nofollow&quot; target=&quot;_NEW&quot;&gt;\nhttp://www.imdb.com/title/tt2180571/&lt;/a&gt;\n\nStoryline\nAfter a traumatic ordeal, acclaimed actress Emily Moore (Warren) and her psychiatrist husband, Robert (Baldwin), escape on a relaxing vacation to a \ngorgeous remote Mediterranean island. But on the first night at the house, a \nyoung woman (Butler) arrives, with blood on her hands and hysterical from the \ndeath of her boyfriend in a hiking accident. Robert offers to take in and help \nthe young girl, but her suggestive behavior makes Emily wonder if she might be a threat to their marriage... or her life.\n\nSource Used    The Stranger Within 2013 DVDR R1 NTSC Latino - Thanks\n\nGreets now going out to !\nJUSTiCE,KiSSMYACE and the rest can just KMA\n\n\nPoster:\n\n &lt;a href=&quot;\nhttp://i.imgur.com/247lBCa.jpg&quot; rel=&quot;nofollow&quot; target=&quot;_NEW&quot;&gt;\nhttp://i.imgur.com/247lBCa.jpg&lt;/a&gt;\n\n\nScreenshots:\n\n &lt;a href=&quot;\nhttp://i.imgur.com/fbTOs6p.jpg&quot; rel=&quot;nofollow&quot; target=&quot;_NEW&quot;&gt;\nhttp://i.imgur.com/fbTOs6p.jpg&lt;/a&gt;\n\n\nSEED AND ENJOY!","torrent":{"xt":"urn:btih:4ed033b389c4a269fb3a01e06a7c193bf65bbc27","amp;dn":"The+Stranger+Within+2013+DVDRiP+XViD-UNiQUE","amp;tr":["udp%3A%2F%2Ftracker.openbittorrent.com%3A80","udp%3A%2F%2Fopen.demonii.com%3A1337","udp%3A%2F%2Ftracker.coppersurfer.tk%3A6969","udp%3A%2F%2Fexodus.desync.com%3A6969"],"infoHash":"4ed033b389c4a269fb3a01e06a7c193bf65bbc27","infoHashBuffer":{"type":"Buffer","data":[78,208,51,179,137,196,162,105,251,58,1,224,106,124,25,59,246,91,188,39]},"announce":[],"urlList":[]}}